<svg width="175" height="22" viewBox="0 0 175 22" fill="none" xmlns="http://www.w3.org/2000/svg">
<g id="Clip path group">
<mask id="mask0_10_323" style="mask-type:luminance" maskUnits="userSpaceOnUse" x="0" y="0" width="175" height="22">
<g id="clip0">
<path id="Vector" d="M175 0H0V21.5423H175V0Z" fill="white"/>
</g>
</mask>
<g mask="url(#mask0_10_323)">
<g id="Group">
<path id="Vector_2" d="M40.7779 7.96466H25.9804L25.4321 8.37467V21.5386H29.5285V16.6022L29.9195 16.2519H40.7785C43.5202 16.2519 44.8057 15.5142 44.8057 13.6214V10.5988C44.8051 8.70289 43.5202 7.96466 40.7779 7.96466ZM40.7779 12.8314C40.7779 13.7232 40.188 13.9084 38.9027 13.9084H29.9643L29.5279 13.4842V10.6642L29.9189 10.3065H38.9027C40.188 10.3065 40.7779 10.4896 40.7779 11.3856V12.8314Z" fill="#005288"/>
<path id="Vector_3" d="M52.2885 10.4545L55.8134 15.6189L55.6182 16.1192H47.8228L45.833 18.5669H57.4366L58.2408 19.0567L60.0423 21.5416H64.7301L54.4547 7.79608" fill="#005288"/>
<path id="Vector_4" d="M98.8881 18.868V15.2143L99.3097 14.8502H107.152V12.5237H94.7227V21.5412H113.057V19.2257H99.3281" fill="#005288"/>
<path id="Vector_5" d="M113.251 7.96466H94.7227V10.5228H113.251V7.96466Z" fill="#005288"/>
<path id="Vector_6" d="M74.0597 10.3874H88.9864C88.7565 8.48934 87.5787 7.96272 84.5909 7.96272H73.9008C70.5294 7.96272 69.4541 8.62072 69.4541 11.172V18.3299C69.4541 20.8839 70.5294 21.542 73.9008 21.542H84.5909C87.6225 21.542 88.7833 20.9726 88.8626 19.0038H74.0597L73.6206 18.5906V10.6639" fill="#005288"/>
<path id="Vector_7" d="M15.4792 13.2543H4.62013L4.30036 12.9023V10.5795L4.61854 10.3336H19.2573L19.4573 9.84441C18.9587 8.56163 17.6674 7.96324 15.2697 7.96324H5.10083C1.73162 7.96324 0.654638 8.62126 0.654638 11.1726V12.6733C0.654638 15.2277 1.73162 15.8848 5.10083 15.8848H15.9356L16.2759 16.1834V18.6117L15.9984 18.9906H3.60487V18.979H0.358613C0.358613 18.979 -0.0128711 19.1652 0.00137614 19.2523C0.278405 21.037 1.49417 21.5425 4.40484 21.5425H15.4792C18.8479 21.5425 19.957 20.8844 19.957 18.3304V16.4609C19.957 13.9112 18.8479 13.2543 15.4792 13.2543Z" fill="#005288"/>
<path id="Vector_8" d="M124.904 7.90947H118.808L118.478 8.53898L125.247 13.4732C126.529 12.7308 127.924 11.9784 129.442 11.2359" fill="#005288"/>
<path id="Vector_9" d="M130.374 17.2033L136.323 21.5418H142.493L142.748 20.9672L133.864 14.4646C132.684 15.3306 131.519 16.2449 130.374 17.2033Z" fill="#005288"/>
<path id="Vector_10" d="M124.008 21.5323H118.493L118.027 20.8025C121.777 17.1821 138.548 1.66271 175.001 0C175.001 0 144.404 1.03213 124.008 21.5323Z" fill="#A7A9AC"/>
</g>
</g>
</g>
</svg>
