<svg width="70" height="19" viewBox="0 0 70 19" fill="none" xmlns="http://www.w3.org/2000/svg">
<g id="Component">
<path id="Vector" d="M8.39036 0.00553894H2.952C2.57978 0.00553894 2.26332 0.27598 2.20525 0.64348L0.00571087 14.5889C-0.0380362 14.864 0.175126 15.1121 0.454199 15.1121H3.05057C3.42272 15.1121 3.73918 14.8418 3.79725 14.4736L4.39046 10.7123C4.44775 10.3441 4.765 10.0737 5.13636 10.0737H6.858C10.4404 10.0737 12.5079 8.34014 13.048 4.90487C13.2912 3.40191 13.0582 2.22108 12.3544 1.39407C11.5815 0.485862 10.2106 0.00553894 8.39036 0.00553894ZM9.0178 5.09893C8.72039 7.05035 7.22936 7.05035 5.78764 7.05035H4.96701L5.54272 3.40595C5.57695 3.18565 5.76776 3.02344 5.99045 3.02344H6.36654C7.34861 3.02344 8.27508 3.02344 8.75376 3.5832C9.03926 3.91723 9.12675 4.41342 9.0178 5.09893Z" fill="#283B82"/>
<path id="Vector_2" d="M24.6466 5.03168H22.0425C21.8206 5.03168 21.629 5.19391 21.5947 5.4142L21.4796 6.1426L21.2974 5.87855C20.7336 5.06027 19.4764 4.78677 18.2215 4.78677C15.3436 4.78677 12.8857 6.96641 12.407 10.024C12.1581 11.5492 12.512 13.0076 13.3772 14.0246C14.1707 14.9597 15.3062 15.3494 16.6575 15.3494C18.9763 15.3494 20.262 13.8584 20.262 13.8584L20.1459 14.5821C20.1021 14.8589 20.3153 15.1069 20.5929 15.1069H22.9386C23.3116 15.1069 23.6265 14.8365 23.6854 14.4684L25.0928 5.55491C25.1374 5.28055 24.9251 5.03168 24.6466 5.03168ZM21.0166 10.1003C20.7655 11.5881 19.5845 12.587 18.0784 12.587C17.3223 12.587 16.7178 12.3444 16.3297 11.8847C15.9449 11.4283 15.7986 10.7786 15.921 10.055C16.1556 8.57987 17.3564 7.54854 18.8394 7.54854C19.579 7.54854 20.1801 7.79422 20.5762 8.25776C20.973 8.72614 21.1303 9.37982 21.0166 10.1003Z" fill="#283B82"/>
<path id="Vector_3" d="M38.5164 5.03168H35.8995C35.6497 5.03168 35.4152 5.15574 35.2736 5.36333L31.6641 10.68L30.1342 5.57086C30.038 5.25114 29.7431 5.03168 29.409 5.03168H26.8374C26.5248 5.03168 26.3078 5.33701 26.4072 5.63124L29.2897 14.0906L26.5798 17.9164C26.3665 18.2177 26.5812 18.6321 26.9496 18.6321H29.5634C29.8114 18.6321 30.0437 18.5112 30.1843 18.3076L38.8886 5.74344C39.0969 5.44279 38.8831 5.03168 38.5164 5.03168Z" fill="#283B82"/>
<path id="Vector_4" d="M47.1813 0.00106812H41.7422C41.3708 0.00106812 41.0543 0.271509 40.9962 0.63901L38.7967 14.5844C38.753 14.8595 38.9661 15.1077 39.2436 15.1077H42.0348C42.294 15.1077 42.516 14.9185 42.5564 14.6608L43.1806 10.7079C43.2379 10.3396 43.5553 10.0692 43.9265 10.0692H45.6474C49.2306 10.0692 51.2974 8.33567 51.8381 4.9004C52.0822 3.39744 51.8477 2.21661 51.1439 1.3896C50.3717 0.481391 49.0016 0.00106812 47.1813 0.00106812ZM47.8089 5.09445C47.5122 7.04588 46.0212 7.04588 44.5787 7.04588H43.7588L44.3354 3.40148C44.3696 3.18118 44.5587 3.01897 44.7822 3.01897H45.1583C46.1397 3.01897 47.0668 3.01897 47.5456 3.57873C47.831 3.91276 47.9177 4.40895 47.8089 5.09445Z" fill="#469BDB"/>
<path id="Vector_5" d="M63.4369 5.03168H60.8342C60.6107 5.03168 60.4205 5.19391 60.3872 5.4142L60.2719 6.1426L60.089 5.87855C59.5253 5.06027 58.2688 4.78677 57.014 4.78677C54.1361 4.78677 51.679 6.96641 51.2002 10.024C50.9522 11.5492 51.3044 13.0076 52.1696 14.0246C52.9648 14.9597 54.0987 15.3494 55.4498 15.3494C57.7686 15.3494 59.0544 13.8584 59.0544 13.8584L58.9382 14.5821C58.8946 14.8589 59.1076 15.1069 59.3868 15.1069H61.7319C62.1033 15.1069 62.4199 14.8365 62.4778 14.4684L63.8861 5.55491C63.9289 5.28055 63.716 5.03168 63.4369 5.03168ZM59.8067 10.1003C59.557 11.5881 58.3745 12.587 56.8685 12.587C56.1138 12.587 55.5079 12.3444 55.1197 11.8847C54.735 11.4283 54.5901 10.7786 54.7111 10.055C54.9472 8.57987 56.1464 7.54854 57.6295 7.54854C58.3691 7.54854 58.9701 7.79422 59.3661 8.25776C59.7645 8.72614 59.922 9.37982 59.8067 10.1003Z" fill="#469BDB"/>
<path id="Vector_6" d="M66.507 0.383673L64.2747 14.5844C64.2311 14.8595 64.4441 15.1077 64.7216 15.1077H66.9656C67.3387 15.1077 67.6552 14.8374 67.7125 14.4691L69.9135 0.524535C69.9573 0.249283 69.7443 0.000411987 69.4666 0.000411987H66.9537C66.732 0.00107536 66.5411 0.163505 66.507 0.383673Z" fill="#469BDB"/>
</g>
</svg>
