<svg width="127" height="18" viewBox="0 0 127 18" fill="none" xmlns="http://www.w3.org/2000/svg">
<g id="Patreon (logo &#226;&#128;&#148; Colour)">
<path id="Vector" d="M9.22509 6.55783C9.22509 5.00019 8.17053 3.65827 6.54124 3.65827H3.88164V9.45656H6.54124C8.17053 9.45656 9.22509 8.11548 9.22509 6.55783ZM0 0.495544H7.02022C10.7344 0.495544 13.1309 3.2993 13.1309 6.55783C13.1309 9.81636 10.7344 12.6193 7.02022 12.6193H3.88164V17.2681H0V0.495544Z" fill="#FF424D"/>
<path id="Vector_2" d="M24.3683 5.28755L22.3076 12.1886H26.3807L24.3683 5.28755ZM27.9867 17.2681L27.3404 15.2314H21.3739L20.7266 17.2681H16.5811L22.5716 0.495544H26.1417L32.204 17.2681H27.9867Z" fill="#FF424D"/>
<path id="Vector_3" d="M38.721 3.84988H34.936V0.495544H46.4126V3.84988H42.6026V17.2681H38.721V3.84988Z" fill="#FF424D"/>
<path id="Vector_4" d="M61.6764 6.55783C61.6764 5.00019 60.6217 3.65827 58.9922 3.65827H56.3325V9.45656H58.9922C60.6217 9.45656 61.6764 8.11548 61.6764 6.55783ZM52.4512 0.495544H59.4963C63.2097 0.495544 65.606 3.2993 65.606 6.55783C65.606 8.90593 64.3599 10.99 62.2749 11.9729L65.6304 17.2681H61.1258L58.1536 12.6193H56.3325V17.2681H52.4512V0.495544Z" fill="#FF424D"/>
<path id="Vector_5" d="M76.0771 3.61079V7.41994H82.4266V10.4636H76.0771V14.1527H82.4266V17.2681H72.1953V0.495544H82.4266V3.61079H76.0771Z" fill="#FF424D"/>
<path id="Vector_6" d="M102.53 8.81773C102.53 6.06229 100.661 3.49846 97.6184 3.49846C94.551 3.49846 92.7063 6.06229 92.7063 8.81773C92.7063 11.5732 94.551 14.137 97.6184 14.137C100.661 14.137 102.53 11.5732 102.53 8.81773ZM88.728 8.81773C88.728 4.21728 92.0349 0 97.6184 0C103.177 0 106.484 4.21728 106.484 8.81773C106.484 13.4181 103.177 17.6355 97.6184 17.6355C92.0349 17.6355 88.728 13.4181 88.728 8.81773Z" fill="#FF424D"/>
<path id="Vector_7" d="M123.042 11.4215V0.495544H126.898V17.2681H122.849L116.81 6.48535V17.2681H112.929V0.495544H116.978L123.042 11.4215Z" fill="#FF424D"/>
</g>
</svg>
