<svg width="49" height="40" viewBox="0 0 49 40" fill="none" xmlns="http://www.w3.org/2000/svg">
<path id="Vector" d="M43.9836 9.912C44.0135 10.344 44.0135 10.7759 44.0135 11.2119C44.0135 24.4956 33.9009 39.8155 15.4097 39.8155V39.8076C9.94731 39.8155 4.59841 38.251 0 35.3008C0.79427 35.3965 1.59252 35.4441 2.39277 35.4461C6.91952 35.45 11.3169 33.9311 14.8782 31.1344C10.5764 31.0527 6.80406 28.2481 5.48623 24.1531C6.99318 24.4438 8.54589 24.3841 10.0249 23.98C5.33496 23.0324 1.96079 18.9117 1.96079 14.1262C1.96079 14.0824 1.96079 14.0406 1.96079 13.9988C3.35824 14.7772 4.92289 15.2091 6.52338 15.2569C2.10611 12.3048 0.744504 6.42836 3.41199 1.83392C8.51603 8.11444 16.0467 11.9325 24.1307 12.3366C23.3205 8.84502 24.4273 5.1862 27.0391 2.7317C31.0882 -1.07443 37.4562 -0.879347 41.2622 3.16765C43.5138 2.72374 45.6717 1.89762 47.6464 0.727113C46.8959 3.0542 45.3251 5.03092 43.227 6.28702C45.2197 6.05211 47.1667 5.51863 49 4.70444C47.6503 6.72695 45.9504 8.48867 43.9836 9.912Z" fill="#1D9BF0"/>
</svg>
