<svg width="36" height="30" viewBox="0 0 36 30" fill="none" xmlns="http://www.w3.org/2000/svg">
<path id="Vector" d="M32.3145 7.28229C32.3365 7.59966 32.3365 7.91702 32.3365 8.23731C32.3365 17.9967 24.9068 29.2522 11.3214 29.2522V29.2464C7.30823 29.2522 3.37842 28.1027 0 25.9353C0.583545 26.0056 1.17002 26.0406 1.75795 26.042C5.08372 26.0449 8.31443 24.929 10.9309 22.8743C7.77039 22.8142 4.9989 20.7537 4.0307 17.7452C5.13784 17.9587 6.27861 17.9148 7.36527 17.6179C3.91956 16.9218 1.44058 13.8943 1.44058 10.3784C1.44058 10.3463 1.44058 10.3156 1.44058 10.2849C2.46728 10.8567 3.61682 11.1741 4.79268 11.2092C1.54735 9.04024 0.546983 4.72288 2.50677 1.34737C6.25667 5.96163 11.7894 8.76675 17.7287 9.06365C17.1334 6.49838 17.9466 3.81027 19.8654 2.00696C22.8403 -0.789377 27.5189 -0.646051 30.3151 2.32726C31.9693 2.00112 33.5547 1.39417 35.0055 0.534205C34.4542 2.2439 33.3001 3.69619 31.7586 4.61904C33.2226 4.44645 34.6531 4.0545 36 3.45632C35.0084 4.94225 33.7594 6.23657 32.3145 7.28229Z" fill="#A1CFEE"/>
</svg>
